HIERARCHY
ROOT Hips
{
 OFFSET 0.000000 0.000000 0.000000
 CHANNELS 6 Xposition Yposition Zposition Yrotation Xrotation Zrotation
 JOINT Chest
 {
  OFFSET 0.000000 9.585900 0.002600
  CHANNELS 3 Yrotation Xrotation Zrotation
  JOINT Chest2
  {
   OFFSET 0.000000 9.601200 -0.005300
   CHANNELS 3 Yrotation Xrotation Zrotation
   JOINT Chest3
   {
    OFFSET 0.000000 9.561800 0.000000
    CHANNELS 3 Yrotation Xrotation Zrotation
    JOINT Chest4
    {
     OFFSET 0.000000 9.552100 0.000000
     CHANNELS 3 Yrotation Xrotation Zrotation
     JOINT Neck
     {
      OFFSET 0.000000 14.453000 0.000000
      CHANNELS 3 Yrotation Xrotation Zrotation
      JOINT Head
      {
       OFFSET 0.000000 8.936500 -0.011300
       CHANNELS 3 Yrotation Xrotation Zrotation
       End Site
       {
        OFFSET 0.000000 17.073600 -0.006000
       }
      }
     }
     JOINT RightCollar
     {
      OFFSET -2.921100 9.558500 0.000000
      CHANNELS 3 Yrotation Xrotation Zrotation
      JOINT RightShoulder
      {
       OFFSET -13.519700 0.000000 0.000000
       CHANNELS 3 Yrotation Xrotation Zrotation
       JOINT RightElbow
       {
        OFFSET 0.000000 -29.696600 0.000000
        CHANNELS 3 Yrotation Xrotation Zrotation
        JOINT RightWrist
        {
         OFFSET 0.000000 -24.004700 0.000000
         CHANNELS 3 Yrotation Xrotation Zrotation
         End Site
         {
          OFFSET 0.000000 -17.728500 0.000000
         }
        }
       }
      }
     }
     JOINT LeftCollar
     {
      OFFSET 2.921100 9.558500 0.000000
      CHANNELS 3 Yrotation Xrotation Zrotation
      JOINT LeftShoulder
      {
       OFFSET 13.519700 0.000000 0.000000
       CHANNELS 3 Yrotation Xrotation Zrotation
       JOINT LeftElbow
       {
        OFFSET 0.000000 -29.696600 0.000000
        CHANNELS 3 Yrotation Xrotation Zrotation
        JOINT LeftWrist
        {
         OFFSET 0.000000 -24.004700 0.000000
         CHANNELS 3 Yrotation Xrotation Zrotation
         End Site
         {
          OFFSET 0.000000 -17.728500 0.000000
         }
        }
       }
      }
     }
    }
   }
  }
 }
 JOINT RightHip
 {
  OFFSET -7.771700 -0.012900 -0.001300
  CHANNELS 3 Yrotation Xrotation Zrotation
  JOINT RightKnee
  {
   OFFSET 0.000000 -40.869800 0.001200
   CHANNELS 3 Yrotation Xrotation Zrotation
   JOINT RightAnkle
   {
    OFFSET 0.000000 -39.717900 0.002100
    CHANNELS 3 Yrotation Xrotation Zrotation
    JOINT RightToe
    {
     OFFSET 0.000000 -4.965400 11.033500
     CHANNELS 3 Yrotation Xrotation Zrotation
     End Site
     {
      OFFSET 0.000000 -1.423100 5.872300
     }
    }
   }
  }
 }
 JOINT LeftHip
 {
  OFFSET 7.771700 -0.012900 -0.001300
  CHANNELS 3 Yrotation Xrotation Zrotation
  JOINT LeftKnee
  {
   OFFSET 0.000000 -40.869800 0.001200
   CHANNELS 3 Yrotation Xrotation Zrotation
   JOINT LeftAnkle
   {
    OFFSET 0.000000 -39.717900 0.002100
    CHANNELS 3 Yrotation Xrotation Zrotation
    JOINT LeftToe
    {
     OFFSET 0.000000 -4.965400 11.033500
     CHANNELS 3 Yrotation Xrotation Zrotation
     End Site
     {
      OFFSET 0.000000 -1.423100 5.872300
     }
    }
   }
  }
 }
}
MOTION
Frames: 15
Frame Time: 0.008333
-6.666630 55.317157 21.455197 -178.808582 -19.411199 -1.609142 -0.153308 18.810392 0.387947 -0.017392 2.192046 0.073711 -0.020572 3.604551 0.120526 -0.051906 16.365603 0.549308 3.820568 9.529333 6.820417 2.581694 -15.611443 6.603437 4.865641 3.269410 0.875684 10.995407 -13.132178 -14.553652 -113.682659 -64.287949 154.403248 -9.816557 -37.381799 -12.759518 -5.896433 -0.341045 0.724578 -8.320859 -17.935067 13.150832 81.255592 -58.901472 -131.570671 0.862524 -34.517959 22.200778 -0.880588 -55.485043 11.817746 -95.746808 87.418681 -99.974714 -11.039501 -22.094027 15.493987 0.038504 -0.172141 0.079059 11.293183 -52.068108 -5.515351 109.972960 77.143006 107.333270 -8.292503 -23.353875 2.277455 0.088008 0.227476 0.033282
-6.668046 55.316984 21.454144 -178.805791 -19.422141 -1.600383 -0.156959 18.816772 0.378026 -0.015156 2.186638 0.073378 -0.023469 3.611733 0.121120 -0.045458 16.354682 0.548540 3.819498 9.529323 6.842909 2.574288 -15.617897 6.630646 4.867639 3.273764 0.860614 10.986570 -13.139774 -14.537485 -113.667700 -64.292872 154.383582 -9.826595 -37.393252 -12.754840 -5.899713 -0.334974 0.737152 -8.321413 -17.936198 13.144758 81.271560 -58.918448 -131.580690 0.883784 -34.500117 22.183563 -0.885180 -55.476493 11.823692 -95.800879 87.409300 -100.027533 -11.113468 -22.064570 15.482989 0.048889 -0.172953 0.087421 11.291116 -52.055547 -5.524171 109.957310 77.138329 107.318004 -8.299637 -23.354321 2.274332 0.094062 0.230240 0.033458
-6.668131 55.316451 21.455099 -178.810889 -19.426029 -1.597762 -0.140187 18.806267 0.379673 -0.020393 2.193412 0.073873 -0.022186 3.612049 0.121002 -0.032939 16.351717 0.547683 3.806555 9.527551 6.869615 2.559709 -15.639874 6.693620 4.850268 3.281576 0.866460 11.008450 -13.159155 -14.546408 -113.634850 -64.303016 154.336757 -9.859608 -37.411094 -12.759611 -5.917904 -0.327094 0.747888 -8.322040 -17.941652 13.146069 81.270639 -58.935020 -131.580431 0.904920 -34.485223 22.173844 -0.913589 -55.471698 11.856436 -95.655248 87.388982 -99.895777 -11.138940 -22.039613 15.478874 0.036019 -0.168122 0.076488 11.284514 -52.055154 -5.517360 109.966290 77.134883 107.322367 -8.298436 -23.354607 2.271650 0.094135 0.231311 0.034825
-6.666932 55.316220 21.456138 -178.814968 -19.434365 -1.604359 -0.125999 18.807173 0.391136 -0.021382 2.194232 0.071352 -0.012735 3.607471 0.122549 -0.033061 16.358687 0.548935 3.797386 9.522036 6.892361 2.544455 -15.651763 6.731048 4.839572 3.277672 0.862737 11.016338 -13.163680 -14.541559 -113.552785 -64.307207 154.273651 -9.839361 -37.431063 -12.785596 -5.929328 -0.331248 0.765215 -8.318029 -17.948747 13.138126 81.245589 -58.929415 -131.557529 0.914495 -34.466151 22.162116 -0.936918 -55.462428 11.871101 -95.585551 87.390660 -99.840833 -11.038860 -22.029730 15.448554 0.048001 -0.173098 0.070518 11.274635 -52.049756 -5.500695 109.969291 77.135023 107.326216 -8.294769 -23.361168 2.268121 0.094731 0.237655 0.036911
-6.667539 55.315893 21.458282 -178.813871 -19.440126 -1.603128 -0.120864 18.806983 0.391585 -0.020430 2.194118 0.074216 -0.009155 3.609204 0.120297 -0.036065 16.362162 0.550293 3.795559 9.514503 6.910969 2.526983 -15.660016 6.757330 4.836435 3.268407 0.858936 11.023991 -13.166930 -14.540020 -113.477985 -64.305502 154.200649 -9.817357 -37.438793 -12.795556 -5.935338 -0.341400 0.780085 -8.311195 -17.966445 13.141274 81.199808 -58.909016 -131.515723 0.920677 -34.459204 22.157342 -0.943855 -55.455747 11.863787 -95.504503 87.388772 -99.770691 -10.944801 -22.027457 15.425226 0.073131 -0.168711 0.064205 11.273690 -52.045147 -5.504296 109.954382 77.139604 107.310189 -8.281747 -23.359633 2.267771 0.089705 0.239788 0.036905
-6.667581 55.315754 21.460924 -178.810016 -19.446225 -1.607679 -0.120800 18.811084 0.395463 -0.012605 2.189000 0.073514 -0.007011 3.613557 0.121563 -0.038327 16.364274 0.551632 3.793159 9.507181 6.928912 2.506590 -15.669814 6.782686 4.835639 3.249139 0.841544 11.016404 -13.158018 -14.518932 -113.406296 -64.297826 154.137888 -9.829174 -37.433471 -12.789990 -5.943207 -0.344082 0.791358 -8.302164 -17.975847 13.142707 81.160348 -58.921508 -131.481076 0.944689 -34.476303 22.144732 -0.961371 -55.448144 11.868166 -95.393060 87.384604 -99.667340 -10.871074 -22.023446 15.404811 -0.000833 -0.173221 0.052598 11.265148 -52.043041 -5.498926 109.941301 77.147625 107.300037 -8.275153 -23.352945 2.264786 0.090228 0.240343 0.038240
-6.669771 55.316105 21.463080 -178.814692 -19.458489 -1.598296 -0.109613 18.817930 0.390132 -0.011325 2.190243 0.074061 -0.005907 3.615226 0.121101 -0.026252 16.368027 0.557596 3.774862 9.501663 6.937451 2.495918 -15.675100 6.794845 4.813159 3.238816 0.833840 11.021114 -13.157730 -14.512242 -113.333218 -64.289331 154.071952 -9.852280 -37.423133 -12.780422 -5.962912 -0.353402 0.803108 -8.291347 -17.979638 13.142852 81.134113 -58.913321 -131.462012 0.948050 -34.457965 22.138888 -0.956804 -55.437096 11.871330 -95.254790 87.366692 -99.521553 -10.942724 -22.006272 15.405848 0.053813 -0.157435 0.057905 11.276598 -52.028969 -5.509359 109.920478 77.150115 107.280595 -8.275606 -23.351373 2.263376 0.092165 0.241873 0.039186
-6.671293 55.317173 21.464238 -178.822348 -19.478852 -1.593813 -0.093743 18.832677 0.388838 -0.009665 2.191595 0.074382 -0.010802 3.617892 0.123058 0.007322 16.372430 0.563352 3.742154 9.494261 6.948771 2.484635 -15.680517 6.806735 4.775340 3.231164 0.835027 11.045310 -13.179960 -14.522585 -113.222922 -64.285437 153.951255 -9.920905 -37.396120 -12.775321 -5.984271 -0.376468 0.838908 -8.287982 -17.973969 13.119587 81.105861 -58.905507 -131.440768 0.966517 -34.433945 22.133465 -0.954927 -55.414291 11.869679 -95.143344 87.368779 -99.419007 -10.909595 -22.002298 15.395628 0.032270 -0.160292 0.056058 11.295189 -52.003970 -5.518583 109.871502 77.148724 107.238991 -8.274912 -23.354388 2.262696 0.089204 0.247826 0.038718
-6.672712 55.317930 21.467081 -178.826695 -19.489182 -1.592628 -0.086741 18.830709 0.391992 -0.006538 2.198414 0.072995 -0.013025 3.621514 0.122985 0.010290 16.374782 0.565157 3.737250 9.485280 6.960139 2.469022 -15.689903 6.824618 4.767587 3.227912 0.831472 11.050395 -13.184720 -14.521723 -113.157169 -64.281425 153.892507 -9.924938 -37.391058 -12.784946 -5.989192 -0.382403 0.849182 -8.279418 -17.978700 13.118048 81.009879 -58.900128 -131.351629 0.988495 -34.371264 22.117532 -0.958936 -55.401870 11.870774 -95.011031 87.370760 -99.296270 -10.880816 -21.994859 15.386729 0.048667 -0.161061 0.057956 11.307012 -51.991541 -5.523238 109.837256 77.149084 107.208350 -8.270754 -23.357243 2.259743 0.082125 0.253763 0.040820
-6.674260 55.318177 21.471885 -178.845652 -19.487167 -1.587280 -0.070408 18.823554 0.393300 -0.005934 2.199062 0.074271 -0.010810 3.621889 0.124084 0.014296 16.379602 0.564442 3.734013 9.477606 6.971791 2.456031 -15.699433 6.839539 4.755577 3.221983 0.834182 11.059390 -13.185818 -14.526988 -113.113160 -64.279489 153.852473 -9.933458 -37.388778 -12.797135 -5.995085 -0.388459 0.862394 -8.271678 -17.981061 13.110302 80.984285 -58.894193 -131.329337 0.993001 -34.318023 22.109480 -0.955949 -55.404119 11.887039 -94.717131 87.377422 -99.010606 -10.925740 -21.970372 15.388305 0.071121 -0.147098 0.055681 11.334781 -51.991413 -5.529063 109.799573 77.147223 107.172591 -8.278518 -23.358529 2.265688 0.081512 0.259068 0.039392
-6.676068 55.319443 21.474051 -178.865578 -19.500538 -1.581911 -0.051405 18.834747 0.394640 -0.017253 2.193172 0.077043 0.000757 3.627665 0.121399 0.015915 16.382218 0.573039 3.730612 9.468551 6.973769 2.446852 -15.708715 6.851405 4.748968 3.217380 0.825453 11.069237 -13.216686 -14.535745 -113.027582 -64.285169 153.763773 -9.950457 -37.389777 -12.804923 -6.001047 -0.398005 0.882306 -8.257282 -17.978896 13.081925 80.968329 -58.894814 -131.313244 0.982793 -34.268724 22.100201 -0.966573 -55.386453 11.915069 -94.443151 87.370278 -98.743826 -10.998656 -21.951523 15.394310 0.048986 -0.137207 0.052207 11.359449 -51.976979 -5.528436 109.775893 77.145105 107.151666 -8.282547 -23.357926 2.265028 0.079990 0.259655 0.042130
-6.678317 55.320425 21.476865 -178.877507 -19.507164 -1.577726 -0.053189 18.838294 0.391811 -0.011428 2.192398 0.078782 -0.007861 3.626648 0.124442 0.027002 16.386875 0.567486 3.726757 9.460978 6.982826 2.445656 -15.718641 6.856899 4.744252 3.212398 0.821302 11.075004 -13.230117 -14.540619 -112.953372 -64.283038 153.697961 -9.939473 -37.396113 -12.811033 -5.998012 -0.401170 0.905017 -8.245918 -17.982001 13.065422 80.994078 -58.918908 -131.341285 1.009229 -34.255720 22.098939 -0.968543 -55.377800 11.925002 -94.228132 87.362927 -98.531797 -11.035380 -21.936762 15.397570 0.030380 -0.132998 0.047214 11.380160 -51.971005 -5.532694 109.767545 77.144216 107.145413 -8.287403 -23.354145 2.269787 0.078981 0.255956 0.040879
-6.680774 55.321367 21.479378 -178.882524 -19.512110 -1.575491 -0.057874 18.833766 0.396433 -0.005220 2.195303 0.075464 -0.007085 3.625630 0.124611 0.026458 16.393444 0.563789 3.725624 9.454072 6.989899 2.443130 -15.724945 6.863412 4.735849 3.207941 0.818587 11.078490 -13.245631 -14.544956 -112.902352 -64.292140 153.666838 -9.936897 -37.408370 -12.826037 -6.004958 -0.405455 0.949499 -8.211463 -17.984490 13.030934 81.014506 -58.920781 -131.370531 0.986654 -34.218734 22.092270 -0.973828 -55.370932 11.931426 -94.050404 87.354451 -98.355143 -11.063712 -21.922433 15.398420 0.067755 -0.126202 0.046296 11.392774 -51.966091 -5.537933 109.756584 77.145795 107.136173 -8.283479 -23.352506 2.269544 0.081930 0.254570 0.041499
-6.682776 55.322352 21.481069 -178.889234 -19.518060 -1.575961 -0.051398 18.832488 0.403079 -0.004919 2.198400 0.073982 -0.006789 3.619477 0.126874 0.033777 16.377870 0.574933 3.725989 9.460290 6.994974 2.436356 -15.713937 6.860092 4.718400 3.229782 0.807497 11.079108 -13.261699 -14.549187 -112.861398 -64.298099 153.637767 -9.947812 -37.417886 -12.819672 -6.017493 -0.385908 0.955227 -8.194980 -17.984747 13.011198 81.019170 -58.922290 -131.378611 0.948495 -34.185937 22.085847 -0.976272 -55.365661 11.929676 -93.984674 87.357822 -98.298980 -10.997760 -21.905506 15.371286 0.048772 -0.142526 0.051300 11.397216 -51.960694 -5.533874 109.745363 77.147616 107.125318 -8.285294 -23.350749 2.270803 0.079824 0.253030 0.040510
-6.684250 55.323216 21.482296 -178.893067 -19.522069 -1.580682 -0.047492 18.829909 0.412383 -0.003704 2.200775 0.072159 -0.008188 3.613940 0.130226 0.034701 16.376264 0.576150 3.726640 9.467208 6.993265 2.439554 -15.715110 6.866454 4.714217 3.239710 0.802475 11.078240 -13.269680 -14.550936 -112.866904 -64.299816 153.653143 -9.956429 -37.415223 -12.815955 -6.017718 -0.379877 0.962957 -8.191420 -17.990346 13.025511 81.042283 -58.913455 -131.395110 0.957346 -34.168602 22.075759 -0.984152 -55.359208 11.937254 -93.856774 87.361845 -98.175425 -10.973886 -21.894421 15.361772 0.052920 -0.148425 0.051717 11.405798 -51.958975 -5.531736 109.743458 77.149333 107.130859 -8.288487 -23.348080 2.270966 0.081103 0.250990 0.041794
